<svg xmlns="http://www.w3.org/2000/svg" viewBox="0 0 123.75 193.44">
  <path fill="#c73047" d="M75.36 170.18H48.38c-1.08 0-1.95.88-1.95 1.95v9.68c0 6.45 5.18 11.63 11.63 11.63h7.72c6.45 0 11.63-5.18 11.63-11.63v-9.68c-.1-1.08-.98-1.95-2.05-1.95Z"/>
  <path fill="#ffcb05" d="M100.48 60.8c-.1-19.26-14.27-34.41-32.75-37.14-1.95-.29-3.91-.49-5.86-.49-2.05 0-4.01.2-5.86.49-18.38 2.83-32.65 17.89-32.75 37.14v.29c0 8.02 2.35 16.62 6.35 25.02 3.91 8.41 9.48 16.52 15.05 23.66 6.16 7.72 12.51 14.17 17.2 18.67 2.15-2.05 4.69-4.59 7.43-7.43 8.31-8.8 18.18-21.11 24.44-34.11 4.2-8.7 6.74-17.5 6.74-25.81v-.29m23.28.19v.29c-.1 12.9-3.81 24.93-9.09 35.78-5.28 10.85-12.02 20.53-18.77 28.74-10.17 12.51-20.14 21.6-24.53 25.32l-.1.1c-.1.1-.2.1-.2.2-1.17.88-1.76 1.17-1.86 1.27-4.79 2.83-10.85 2.64-15.44-.49-.39-.2-.78-.59-1.37-.98l-.1-.1c-2.93-2.54-8.41-7.43-14.76-14.17-9.29-9.87-20.62-23.65-28.44-39.88C3.91 86.21.1 74.29 0 61.39v-.49C0 29.91 22.68 5.18 52.49.68 55.52.19 58.65 0 61.87 0s6.35.2 9.38.68c29.81 4.59 52.49 29.32 52.49 60.31"/>
</svg>
